<?xml version="1.0" standalone="no"?>
<!DOCTYPE svg PUBLIC "-//W3C//DTD SVG 20010904//EN"
 "http://www.w3.org/TR/2001/REC-SVG-20010904/DTD/svg10.dtd">
<svg version="1.0" xmlns="http://www.w3.org/2000/svg"
 width="1280.000000pt" height="375.000000pt" viewBox="0 0 1280.000000 375.000000"
 preserveAspectRatio="xMidYMid meet">
<metadata>
Created by potrace 1.16, written by Peter Selinger 2001-2019
</metadata>
<g transform="translate(0.000000,375.000000) scale(0.100000,-0.100000)"
fill="#000000" stroke="none">
<path d="M1155 3706 c-11 -9 -39 -16 -63 -16 -30 0 -44 -5 -49 -16 -5 -14 -16
-15 -65 -10 -57 6 -69 1 -47 -21 7 -7 1 -12 -20 -16 -18 -4 -31 -13 -31 -22 0
-11 -11 -15 -40 -15 -22 0 -40 5 -40 10 0 13 -27 13 -35 -1 -4 -6 1 -17 11
-24 18 -14 18 -14 -3 -15 -15 0 -23 -6 -23 -16 0 -13 -7 -15 -36 -11 -31 5
-34 4 -29 -12 7 -22 -31 -36 -51 -20 -8 7 -15 6 -19 -2 -4 -6 -1 -16 6 -21 10
-7 9 -8 -6 -4 -24 7 -53 -8 -36 -18 16 -10 14 -26 -4 -26 -8 0 -15 -7 -15 -16
0 -13 -7 -15 -35 -11 -32 5 -41 1 -96 -51 -87 -80 -109 -105 -109 -119 0 -7 5
-13 12 -13 6 0 2 -9 -10 -20 -12 -12 -22 -27 -22 -36 0 -8 -7 -17 -15 -20 -8
-4 -15 -12 -15 -20 0 -8 -4 -14 -10 -14 -5 0 -10 5 -10 10 0 6 -5 10 -11 10
-7 0 -9 -10 -5 -26 6 -22 4 -25 -13 -19 -18 5 -19 3 -14 -30 6 -34 4 -37 -18
-33 -20 2 -24 -1 -22 -22 1 -14 -1 -19 -3 -12 -7 15 -34 16 -34 1 0 -7 8 -18
18 -25 10 -8 12 -13 5 -14 -7 0 -13 -8 -13 -17 -1 -17 -1 -17 -11 0 -8 14 -14
16 -25 6 -16 -13 -19 -39 -4 -39 16 0 12 -70 -5 -76 -9 -4 -15 -19 -15 -35 0
-32 -14 -39 -25 -11 -6 16 -7 16 -17 -1 -7 -13 -7 -22 1 -30 17 -17 14 -87 -3
-87 -26 0 -36 -117 -36 -408 0 -155 3 -282 6 -282 4 0 12 6 18 14 6 8 45 26
86 40 41 14 167 57 280 97 113 39 216 75 230 79 14 5 111 38 215 75 323 112
488 167 540 180 72 18 231 64 295 85 53 18 55 20 54 52 -3 80 -52 160 -269
443 -97 127 -265 358 -265 365 0 11 65 24 82 17 7 -3 123 -101 258 -217 135
-117 256 -222 270 -234 14 -11 93 -81 177 -153 93 -83 159 -133 173 -133 12 0
42 6 68 14 26 8 72 22 102 30 30 9 96 28 145 42 200 58 260 71 352 75 33 1 64
-1 70 -4 27 -17 31 28 6 72 -19 33 -32 38 -51 19 -9 -9 -12 -8 -12 4 0 9 -7
18 -15 22 -8 3 -15 17 -15 31 0 14 -7 28 -15 31 -17 7 -20 35 -5 50 8 8 6 15
-5 24 -14 12 -18 11 -26 -1 -8 -10 -8 -7 -4 10 6 20 4 23 -9 18 -27 -10 -68
41 -61 76 4 25 2 28 -18 22 -16 -5 -18 -4 -8 3 17 12 8 42 -13 42 -8 0 -17 -6
-20 -12 -3 -7 -3 -3 -1 9 7 25 -13 42 -26 22 -6 -10 -8 -7 -7 11 2 18 -2 25
-14 24 -10 -1 -14 4 -11 12 7 20 -47 67 -62 54 -9 -8 -14 -6 -19 5 -3 8 -17
15 -31 15 -16 0 -25 6 -25 15 0 8 -4 15 -10 15 -18 0 -55 46 -52 65 3 15 1 17
-8 9 -15 -14 -63 -5 -56 11 2 6 -7 25 -20 41 -21 26 -25 27 -34 12 -6 -10 -18
-14 -30 -11 -20 5 -20 7 -4 24 16 17 16 19 0 25 -10 4 -22 2 -29 -5 -17 -17
-77 -14 -77 4 0 8 -14 17 -36 21 -29 5 -33 9 -20 16 30 17 7 27 -49 21 -45 -5
-56 -3 -61 11 -4 12 -19 16 -54 16 -30 0 -50 5 -52 13 -4 9 -80 13 -329 15
-276 2 -327 1 -344 -12z"/>
<path d="M10081 2922 c-6 -11 -21 -22 -33 -24 -30 -4 -34 -25 -6 -31 13 -3 8
-5 -12 -4 -28 2 -34 -2 -32 -16 2 -9 -2 -17 -8 -17 -6 0 -22 -11 -35 -25 l-25
-24 0 -300 c0 -279 -1 -300 -17 -294 -11 4 -12 8 -5 11 7 2 12 12 12 23 0 16
-7 19 -42 19 -56 0 -77 -12 -59 -34 11 -13 11 -16 -2 -16 -8 0 -17 5 -19 12
-6 16 -154 16 -170 0 -6 -6 -19 -12 -27 -12 -11 0 -12 3 -3 12 17 17 -4 38
-38 38 -35 0 -58 -24 -35 -37 12 -7 8 -12 -20 -22 -19 -7 -35 -17 -35 -22 0
-5 -16 -9 -35 -9 -22 0 -38 -6 -41 -15 -4 -9 -19 -15 -35 -15 -19 0 -29 -5
-29 -15 0 -9 -10 -15 -26 -15 -14 0 -23 4 -19 10 3 6 13 10 21 10 8 0 14 5 14
10 0 6 -7 10 -15 10 -20 0 -87 -71 -81 -87 4 -9 -1 -13 -12 -11 -12 2 -16 -3
-15 -19 3 -23 -12 -32 -19 -12 -2 7 -9 5 -17 -5 -9 -11 -10 -16 -2 -16 6 0 11
-5 11 -11 0 -6 -9 -8 -20 -4 -16 5 -20 2 -20 -19 0 -14 -4 -26 -10 -26 -5 0
-13 -12 -16 -26 -4 -17 -11 -23 -21 -20 -16 7 -63 -32 -63 -51 0 -7 10 -13 23
-14 12 0 16 -3 10 -6 -7 -2 -13 -20 -13 -39 0 -24 -5 -34 -15 -34 -12 0 -15
-16 -15 -80 0 -47 -4 -80 -10 -80 -5 0 -10 24 -10 53 0 58 -13 91 -24 62 -10
-26 -7 -113 4 -120 6 -3 10 -44 10 -91 0 -68 3 -84 15 -84 12 0 15 -15 15 -79
0 -58 4 -82 15 -91 17 -14 21 -70 5 -70 -14 0 -13 -37 2 -46 6 -4 17 0 23 10
11 15 13 14 18 -6 4 -12 2 -27 -4 -34 -7 -8 -6 -15 2 -19 6 -4 15 -1 20 6 6
10 8 7 7 -11 -2 -19 1 -24 15 -22 9 2 20 -4 23 -13 3 -8 12 -15 20 -15 8 0 14
-7 14 -15 0 -8 7 -15 15 -15 8 0 15 -6 15 -13 0 -7 13 -24 29 -37 15 -14 26
-31 24 -38 -3 -7 6 -24 20 -37 20 -21 26 -23 36 -12 13 17 73 10 84 -9 5 -9
25 -14 52 -14 48 0 62 -17 20 -22 -14 -2 -26 -7 -26 -13 0 -15 53 -19 61 -5 6
9 18 10 46 2 l39 -10 -38 -1 c-48 -1 -45 -21 4 -34 37 -10 190 -4 209 8 17 11
-7 24 -45 26 -23 1 -18 4 19 11 35 6 51 6 56 -2 8 -14 60 -9 63 5 1 6 -8 11
-20 13 -41 6 -24 22 22 22 33 0 45 4 45 15 0 10 11 15 35 15 32 0 35 -3 35
-29 0 -26 4 -30 48 -39 26 -5 37 -10 25 -11 -33 -2 -37 -19 -9 -33 20 -8 32
-8 51 0 31 14 32 32 3 32 -22 1 -22 1 -4 12 15 8 21 8 24 0 5 -15 49 -16 57
-1 4 6 -2 13 -14 16 -34 9 -24 20 21 26 24 3 44 11 46 16 5 14 45 14 59 0 16
-16 28 8 13 26 -10 12 -10 15 0 15 7 0 23 10 36 23 l24 22 0 997 c0 548 -3
1003 -6 1012 -7 18 -69 23 -79 6 -3 -5 -33 -10 -66 -10 -44 0 -61 -4 -65 -15
-4 -8 -18 -15 -32 -15 -25 0 -25 1 -6 14 14 11 16 17 7 26 -8 9 -14 7 -22 -8z
m-164 -1077 c10 -11 13 -80 12 -332 0 -175 -3 -312 -6 -305 -7 17 -32 15 -39
-3 -4 -8 0 -23 7 -32 13 -15 10 -16 -28 -10 -27 5 -43 3 -43 -3 0 -5 5 -10 10
-10 6 0 10 -4 10 -10 0 -6 -52 -10 -137 -10 -107 0 -134 3 -125 12 16 16 15
33 -1 20 -7 -6 -23 -9 -34 -6 -18 5 -20 9 -11 23 8 14 5 23 -14 44 -27 29 -48
35 -49 15 0 -7 -4 -4 -8 7 -5 11 -5 25 0 31 11 14 1 24 -16 18 -20 -8 -29 86
-23 238 4 98 9 132 21 141 8 7 17 19 20 27 4 12 6 11 6 -2 1 -20 3 -21 25 -12
20 8 21 30 2 37 -9 4 -12 14 -9 27 5 19 7 19 18 4 12 -17 35 -12 35 8 0 6 8
16 17 23 15 11 15 15 4 29 -12 14 -10 16 12 16 13 0 30 7 37 14 15 19 79 25
199 19 59 -3 100 -10 108 -18z"/>
<path d="M3634 2905 c-10 -8 -29 -15 -41 -15 -13 0 -23 -6 -23 -14 0 -8 -13
-17 -29 -21 -22 -5 -31 -14 -36 -36 -4 -16 -13 -29 -21 -29 -9 0 -14 -11 -14
-30 0 -18 -6 -33 -15 -36 -13 -5 -15 -109 -15 -850 0 -623 -3 -849 -12 -863
-9 -15 -7 -25 12 -55 14 -23 29 -36 39 -34 9 2 28 -9 43 -24 15 -16 32 -28 38
-28 6 0 9 -8 6 -17 -5 -17 22 -18 497 -15 276 1 508 4 515 7 6 2 12 13 12 22
0 10 9 26 20 36 11 9 20 28 20 42 0 16 6 25 15 25 10 0 15 11 16 33 0 17 3 25
6 17 2 -8 7 -21 9 -29 3 -11 7 -11 19 -1 17 14 21 60 5 60 -5 0 -10 37 -12 83
l-3 82 -397 3 -398 2 0 275 0 275 348 2 347 3 0 185 0 185 -347 3 -348 2 0
190 0 190 334 0 c184 0 341 3 350 6 9 3 16 13 16 21 0 8 7 21 15 30 9 8 19 28
22 44 3 15 11 30 19 33 8 3 14 20 15 38 1 30 2 31 8 8 4 -14 13 -25 21 -25 18
0 26 43 11 58 -6 6 -11 43 -11 82 0 42 -5 76 -12 83 -9 9 -138 12 -518 12
-430 0 -509 -2 -526 -15z"/>
<path d="M10820 2822 c0 -4 -33 -6 -73 -4 -60 3 -77 1 -91 -13 -12 -13 -27
-16 -51 -12 -19 3 -37 1 -40 -4 -4 -5 -1 -9 4 -9 6 0 11 -5 11 -11 0 -6 -8 -8
-19 -4 -11 3 -22 1 -26 -5 -3 -5 -1 -10 5 -10 15 0 2 -42 -16 -53 -8 -4 -14
-23 -14 -42 0 -18 -5 -46 -10 -61 -7 -19 -7 -30 1 -40 7 -9 10 -36 7 -70 -4
-51 -3 -55 14 -51 15 4 18 1 13 -13 -6 -20 21 -36 29 -17 2 7 4 1 3 -13 -2
-23 1 -25 34 -22 26 2 38 -1 42 -12 8 -21 172 -23 184 -3 12 20 45 30 54 16
11 -19 30 1 24 24 -5 16 -4 18 3 8 14 -20 33 -4 26 23 -3 14 1 27 10 35 10 8
16 29 16 53 0 25 4 37 10 33 6 -4 8 -16 4 -27 -6 -21 12 -42 28 -32 13 8 9 52
-4 61 -24 15 -38 53 -37 95 l2 43 6 -35 c7 -40 34 -48 39 -12 4 26 -40 78 -57
68 -11 -7 -51 28 -51 44 0 6 -7 10 -15 10 -9 0 -18 7 -21 15 -4 8 -15 15 -25
15 -10 0 -19 5 -19 10 0 6 5 10 10 10 6 0 10 5 10 10 0 6 -4 10 -10 10 -5 0
-10 -3 -10 -8z"/>
<path d="M2890 2728 c-17 -36 -110 -88 -200 -114 -27 -8 -74 -21 -102 -30 -29
-8 -77 -22 -105 -30 -55 -14 -119 -32 -212 -58 -29 -9 -59 -20 -67 -27 -7 -6
-32 -70 -54 -142 -46 -147 -114 -366 -185 -592 -115 -371 -111 -360 -141 -374
-53 -24 -58 -18 -50 67 4 42 13 158 21 257 8 99 19 225 25 280 18 189 9 325
-24 371 -15 19 -13 20 -196 -33 -47 -14 -107 -31 -135 -38 -27 -7 -84 -23
-125 -35 -41 -12 -93 -25 -115 -30 -66 -13 -307 -69 -345 -80 -19 -5 -75 -19
-125 -30 -49 -11 -108 -25 -130 -30 -44 -10 -290 -69 -425 -101 -47 -11 -107
-25 -135 -31 -27 -7 -54 -15 -58 -18 -14 -12 13 -140 29 -140 10 0 14 -12 14
-40 0 -22 -4 -40 -10 -40 -14 0 -13 -27 2 -36 6 -4 14 -2 16 4 7 23 22 11 22
-18 0 -20 5 -30 15 -30 11 0 15 -11 15 -40 0 -22 -4 -40 -10 -40 -13 0 -13
-27 1 -36 6 -3 15 -2 21 4 18 18 50 -25 46 -61 -3 -29 -1 -32 21 -29 22 4 24
1 18 -33 -5 -33 -4 -35 14 -30 17 6 19 3 13 -19 -4 -16 -2 -26 5 -26 6 0 11 5
11 10 0 6 5 10 10 10 6 0 10 -7 10 -15 0 -8 6 -15 14 -15 8 0 17 -12 21 -27 3
-15 14 -33 23 -40 11 -8 12 -12 5 -13 -28 0 -9 -27 72 -106 81 -78 88 -82 120
-77 28 4 35 2 35 -11 0 -9 7 -16 15 -16 18 0 19 -12 3 -29 -11 -11 -7 -12 20
-6 24 5 32 3 32 -8 0 -8 13 -17 31 -21 25 -5 29 -9 20 -19 -8 -11 -5 -19 12
-35 18 -17 31 -20 62 -16 28 4 36 3 26 -4 -8 -6 -11 -17 -8 -26 7 -18 27 -22
27 -6 0 6 18 10 40 10 29 0 40 -4 40 -15 0 -10 10 -15 30 -15 17 0 30 -4 30
-10 0 -5 -4 -10 -10 -10 -16 0 -12 -20 6 -27 9 -3 19 -1 23 6 4 6 15 9 25 5
13 -5 14 -9 5 -14 -16 -10 -4 -40 16 -40 21 0 31 30 14 41 -11 7 -11 9 -1 9 7
0 20 -7 28 -15 9 -8 32 -15 53 -15 21 0 52 -7 69 -16 27 -13 76 -15 336 -12
227 2 308 6 318 16 6 6 31 12 54 12 25 0 47 6 54 15 18 21 29 19 23 -5 -8 -29
23 -37 50 -12 12 11 33 22 47 24 31 4 33 22 3 26 -34 5 -28 22 7 22 18 0 33 6
36 15 7 17 69 21 79 5 8 -12 16 -12 35 0 13 8 12 11 -5 24 -17 13 -17 15 -4
16 9 0 19 7 23 15 3 8 16 14 28 14 17 -1 18 -2 6 -6 -10 -2 -18 -10 -18 -17 0
-26 14 -26 42 1 20 19 25 30 17 39 -13 15 19 28 46 18 14 -6 16 -3 10 14 -5
16 -2 22 10 22 8 0 18 7 21 15 4 8 12 15 20 15 8 0 14 7 14 15 0 8 9 15 19 15
11 0 26 7 35 15 8 8 21 12 29 9 8 -3 17 2 20 10 4 9 13 16 22 16 8 0 15 6 15
14 0 8 7 17 16 20 10 4 13 13 9 25 -5 16 -2 18 15 14 11 -3 20 0 20 6 0 6 7
11 15 11 21 0 31 30 14 42 -10 7 -8 7 9 3 21 -6 22 -5 16 34 -5 33 -4 41 9 41
9 0 20 8 26 17 5 10 13 15 17 11 4 -4 20 2 36 14 21 14 26 24 19 31 -16 16
-13 47 4 53 8 4 15 17 15 30 0 14 7 27 15 30 8 4 15 13 15 22 0 12 3 13 12 4
19 -19 32 -14 51 19 18 33 22 65 9 73 -12 7 -2 74 14 87 8 6 14 29 14 50 0 22
4 39 8 39 5 0 8 -10 8 -22 -1 -14 5 -23 14 -23 10 0 14 8 12 25 -2 14 -5 48
-7 75 -3 45 -3 46 4 12 9 -43 15 -52 30 -42 14 8 14 85 1 85 -17 0 -12 167 6
195 13 19 15 48 12 156 -2 95 -7 134 -15 137 -16 5 -18 182 -3 182 15 0 12 76
-4 89 -12 10 -16 5 -25 -31 l-10 -43 4 45 c2 25 5 56 7 69 4 32 -21 40 -30 10
-6 -20 -8 -16 -12 20 -6 54 -20 61 -40 19z"/>
<path d="M3396 2694 c-8 -20 -8 -1618 0 -1638 3 -9 10 -13 15 -10 12 7 12
1651 0 1658 -5 3 -12 -1 -15 -10z"/>
<path d="M3908 2350 c-1 -77 -2 -149 -2 -161 -1 -21 1 -21 299 -19 176 0 304
5 309 10 6 6 8 11 5 12 -2 1 -134 5 -294 8 l-290 5 -3 143 c-3 187 -21 189
-24 2z"/>
<path d="M12665 2252 c-60 -2 -93 -7 -100 -16 -6 -7 -20 -16 -31 -20 -12 -4
-27 -20 -34 -36 -6 -16 -18 -31 -26 -34 -10 -4 -14 -26 -14 -86 0 -68 4 -86
22 -111 19 -25 20 -31 8 -39 -12 -7 -9 -13 13 -34 15 -13 29 -21 32 -16 4 7
64 6 183 -4 35 -3 42 -1 37 11 -3 9 5 26 20 41 25 25 26 27 24 175 l-1 149
-26 -6 c-20 -5 -23 -4 -12 3 28 19 -3 26 -95 23z"/>
<path d="M6641 2226 c-10 -11 -9 -16 5 -24 14 -8 13 -10 -10 -16 -14 -3 -26
-13 -26 -21 0 -12 -33 -15 -207 -17 l-208 -3 -3 -607 c-2 -563 -3 -608 -19
-608 -13 0 -14 3 -5 12 9 9 12 152 12 584 0 315 -3 579 -6 588 -8 21 -20 20
-29 -1 -3 -10 -6 -258 -5 -552 1 -528 -1 -561 -31 -561 -5 0 -9 7 -9 15 0 8
-4 15 -10 15 -16 0 -60 50 -60 68 1 16 2 16 14 0 7 -10 17 -18 21 -18 4 0 13
-7 20 -17 8 -11 14 -13 19 -4 4 6 0 14 -8 17 -9 3 -16 11 -16 16 0 18 -45 47
-63 42 -16 -5 -18 -2 -12 16 6 19 4 21 -14 15 -19 -6 -21 -4 -15 19 4 16 2 26
-5 26 -6 0 -11 -4 -11 -10 0 -5 -4 -10 -10 -10 -5 0 -10 5 -10 10 0 6 -9 19
-20 30 -21 21 -27 50 -9 50 5 0 7 5 4 10 -4 6 -16 8 -28 5 -12 -2 -16 -2 -9 1
19 9 14 27 -13 53 -21 19 -28 21 -40 11 -12 -10 -15 -9 -15 4 0 9 -5 16 -10
16 -17 0 -36 50 -22 59 8 5 3 17 -17 38 -15 17 -31 39 -35 48 -6 17 -8 17 -26
0 -20 -18 -20 -17 -20 12 0 18 6 33 15 37 8 3 15 12 15 21 0 18 16 20 23 3 3
-8 20 4 46 31 40 43 50 61 32 61 -14 0 -1 38 15 44 8 3 14 12 14 21 0 18 17
20 22 3 2 -6 32 16 67 49 53 50 60 61 48 71 -18 15 -11 52 9 52 8 0 14 7 14
16 0 11 6 13 19 9 24 -7 93 59 84 82 -3 8 0 19 7 23 7 4 13 25 14 46 l1 39
-203 3 -202 2 -6 -30 c-4 -16 -13 -30 -20 -30 -8 0 -14 -7 -14 -16 0 -9 -7
-14 -17 -12 -19 4 -30 -3 -68 -42 -16 -15 -23 -31 -19 -42 3 -10 -2 -25 -10
-34 -9 -8 -16 -22 -16 -30 0 -8 -7 -14 -15 -14 -8 0 -15 -7 -15 -15 0 -8 -4
-15 -10 -15 -5 0 -10 5 -10 10 0 6 -4 10 -10 10 -5 0 -10 -7 -10 -15 0 -21
-37 -19 -50 3 -8 12 -13 13 -16 5 -8 -18 -24 -16 -24 2 0 8 -7 15 -16 15 -13
0 -15 7 -11 36 5 32 4 35 -16 30 -12 -3 -16 -3 -9 0 18 8 15 17 -16 52 -21 24
-31 29 -40 20 -8 -8 -13 -7 -18 5 -3 9 -12 17 -19 17 -17 0 -26 35 -12 49 6 6
7 14 2 18 -4 5 -10 2 -12 -4 -7 -20 -23 -15 -23 7 0 19 -7 20 -240 20 l-240 0
0 -35 c0 -39 -6 -43 -26 -17 -12 16 -13 16 -14 0 0 -21 69 -90 82 -82 15 10
28 -18 18 -37 -12 -22 90 -135 114 -126 10 4 16 1 16 -8 0 -8 7 -15 15 -15 8
0 15 -7 15 -15 0 -8 6 -15 14 -15 7 0 16 -10 19 -22 8 -30 0 -36 -17 -12 -8
10 -17 16 -21 12 -11 -10 73 -88 88 -82 11 4 13 -1 10 -20 -3 -16 -1 -26 6
-26 6 0 11 5 11 10 0 6 5 10 10 10 6 0 10 -7 10 -15 0 -8 6 -15 14 -15 8 0 17
-13 21 -30 4 -16 13 -30 21 -30 12 0 12 -4 2 -21 -11 -17 -10 -22 5 -30 25
-15 21 -44 -13 -80 -19 -22 -26 -37 -20 -44 13 -15 1 -55 -16 -55 -8 0 -14 -7
-14 -16 0 -13 -3 -14 -15 -4 -8 6 -19 9 -25 5 -14 -9 -13 -32 3 -39 6 -3 2 -3
-10 -1 -25 7 -42 -13 -22 -27 10 -7 8 -8 -8 -3 -24 6 -43 -13 -23 -25 9 -6 9
-12 -1 -29 -8 -11 -17 -21 -21 -21 -5 0 -8 -7 -8 -15 0 -8 -7 -15 -15 -15 -8
0 -15 -7 -15 -16 0 -11 -5 -14 -16 -10 -9 4 -28 -6 -47 -24 -18 -16 -35 -30
-39 -30 -5 0 -8 -7 -8 -15 0 -9 -7 -18 -15 -21 -8 -4 -12 -10 -9 -16 3 -5 12
-4 20 3 8 6 17 10 19 7 10 -9 -7 -38 -21 -38 -8 0 -14 -7 -14 -16 0 -10 -6
-14 -14 -11 -17 7 -86 -52 -86 -73 0 -9 6 -8 20 5 20 18 20 17 20 -23 l0 -42
185 0 186 0 27 28 c15 16 34 26 41 24 7 -2 29 13 47 34 35 39 42 54 24 54 -5
0 -10 -4 -10 -10 0 -5 -4 -10 -10 -10 -5 0 -10 9 -10 20 0 11 7 20 15 20 8 0
15 7 15 15 0 8 7 15 15 15 9 0 18 6 21 14 3 8 12 12 20 9 7 -3 28 11 48 32 30
31 34 41 29 71 -4 27 -2 34 11 34 9 0 16 7 16 15 0 8 7 15 15 15 13 0 12 -4
-5 -22 -19 -21 -27 -48 -14 -48 3 0 19 9 35 21 25 18 30 18 35 5 3 -9 12 -16
20 -16 8 0 14 -7 14 -15 0 -8 7 -15 15 -15 10 0 15 -10 15 -27 0 -25 0 -26
-20 -8 -35 32 -21 -3 16 -40 21 -22 42 -34 51 -31 10 4 13 1 8 -13 -3 -11 1
-25 10 -34 8 -9 15 -21 15 -28 0 -17 53 -64 58 -50 8 23 22 10 16 -15 -6 -23
-4 -25 13 -20 14 4 23 1 27 -9 5 -13 36 -15 216 -15 l210 0 2 -377 c3 -328 5
-378 18 -378 13 0 16 51 20 380 l5 380 5 -385 5 -385 99 -3 c80 -2 102 0 117
13 9 9 30 16 46 15 52 -4 58 -1 37 15 -19 14 -18 14 4 15 12 0 30 9 39 20 10
11 23 20 30 20 6 0 19 7 27 16 14 13 16 55 16 305 0 260 2 289 16 289 13 0 14
-3 5 -14 -8 -9 -11 -91 -9 -277 3 -227 5 -264 18 -264 13 0 16 37 20 249 l5
249 105 -2 c108 -1 159 6 160 24 1 6 -14 12 -32 15 -32 6 -32 6 15 14 31 5 47
12 47 22 0 11 15 14 60 14 45 0 62 4 66 15 7 17 84 22 84 5 0 -12 11 -13 30 0
13 8 12 11 -5 24 -20 15 -19 15 6 16 14 0 30 -5 36 -11 7 -7 17 -2 31 19 12
16 18 32 14 36 -4 4 1 12 11 17 9 6 17 17 17 24 0 8 7 15 15 15 9 0 18 7 21
15 4 8 12 15 20 15 8 0 14 5 14 10 0 16 38 50 56 50 11 0 14 6 9 20 -4 11 -2
20 4 20 6 0 11 -5 11 -11 0 -5 4 -7 10 -4 5 3 7 20 3 37 -4 23 -2 34 11 43 9
7 21 32 25 56 6 32 9 36 10 17 1 -19 6 -28 17 -28 13 0 15 10 11 58 -2 31 -2
45 0 31 3 -19 11 -28 29 -32 27 -5 47 19 27 32 -23 14 -34 243 -16 316 9 33
11 9 12 -123 1 -135 4 -164 16 -168 10 -4 15 -21 15 -54 0 -30 6 -54 15 -64 8
-8 15 -24 15 -37 0 -18 -2 -19 -15 -9 -9 7 -19 10 -22 6 -4 -4 -3 -10 3 -14 6
-4 17 -18 24 -31 12 -23 14 -23 25 -7 12 16 14 16 20 -4 4 -11 2 -27 -5 -35
-8 -10 -8 -15 1 -20 6 -4 15 -1 20 6 4 7 11 10 16 6 4 -5 1 -12 -6 -16 -19
-12 -3 -33 20 -26 13 4 19 2 19 -9 0 -9 8 -16 17 -16 13 0 14 -3 6 -11 -14
-14 -6 -39 12 -39 7 0 16 6 19 13 2 6 4 1 3 -13 -1 -18 3 -25 14 -24 9 1 16
-6 15 -15 -1 -11 6 -15 24 -14 14 1 19 -1 13 -3 -7 -3 -13 -12 -13 -19 0 -18
30 -27 36 -11 3 8 14 12 25 9 20 -5 27 -23 9 -23 -5 0 -10 -4 -10 -10 0 -5 20
-7 48 -3 37 4 51 2 61 -11 9 -10 29 -16 57 -16 48 0 61 -17 17 -22 -16 -2 -28
-7 -28 -13 0 -14 66 -19 75 -5 5 8 17 9 41 2 l34 -10 -38 -1 c-43 -1 -47 -21
-6 -32 32 -9 178 -11 218 -3 41 8 35 28 -10 33 -33 4 -33 4 16 16 41 9 52 9
62 -2 13 -16 79 -14 76 2 -1 6 -19 15 -40 22 l-38 11 56 1 c37 1 61 6 69 16 8
10 30 15 61 15 31 0 51 5 56 14 11 19 72 25 82 7 11 -17 41 -7 41 13 0 8 -8
17 -17 19 -12 3 -9 5 8 6 46 2 50 16 47 192 l-3 164 -49 3 c-32 2 -54 -2 -65
-12 -9 -8 -28 -18 -43 -21 -16 -4 -28 -13 -28 -21 0 -9 -11 -14 -30 -14 -18 0
-33 -6 -36 -15 -4 -10 -20 -15 -50 -15 -32 0 -44 -4 -44 -15 0 -13 -24 -15
-160 -15 -100 0 -160 4 -160 10 0 6 5 10 10 10 6 0 10 5 10 10 0 6 -16 8 -42
4 -36 -5 -41 -4 -30 7 16 17 16 39 -1 39 -7 0 -20 9 -30 20 -9 11 -31 23 -47
27 -20 3 -30 12 -30 23 0 10 -7 23 -15 30 -8 7 -15 25 -15 41 l0 29 445 0
c443 0 445 0 445 21 0 11 7 27 15 35 12 12 15 42 15 135 0 97 -3 121 -15 125
-17 7 -22 114 -5 114 13 0 13 37 -1 45 -6 4 -17 -1 -24 -11 -13 -18 -14 -17
-15 13 0 19 -7 36 -17 41 -12 7 -14 17 -10 42 6 29 5 32 -13 27 -17 -4 -20 -2
-14 15 5 15 2 19 -12 16 -18 -3 -64 34 -64 52 0 6 -7 10 -16 10 -10 0 -14 5
-10 16 7 19 -38 71 -48 55 -11 -17 -56 -14 -56 4 0 10 -11 15 -35 15 -37 0
-43 8 -22 29 10 10 7 11 -13 6 -14 -3 -37 -2 -50 4 -18 7 -20 10 -7 10 27 1
20 30 -9 37 -14 4 -38 1 -52 -6 -37 -17 -233 -19 -250 -2 -18 16 -54 15 -78
-2 -18 -14 -18 -15 5 -24 l25 -9 -28 -7 c-17 -4 -34 -2 -42 5 -10 8 -18 9 -25
2 -8 -8 -7 -13 0 -17 21 -13 11 -26 -19 -26 -19 0 -33 -6 -37 -16 -5 -13 -14
-15 -44 -10 -24 4 -39 2 -39 -4 0 -5 5 -10 10 -10 6 0 10 -4 10 -9 0 -14 -43
-22 -51 -9 -7 11 -29 3 -29 -12 0 -5 6 -10 13 -13 6 -2 3 -3 -8 -1 -13 2 -37
-12 -65 -36 -36 -32 -41 -41 -32 -53 10 -12 9 -16 -3 -21 -8 -3 -15 -17 -15
-31 0 -15 -6 -25 -14 -25 -8 0 -17 -7 -20 -16 -5 -12 -9 -14 -20 -5 -10 9 -17
7 -27 -5 -11 -14 -11 -18 2 -28 16 -12 14 -47 -4 -58 -6 -3 -12 -31 -15 -62
-5 -59 -18 -75 -24 -29 -2 22 -8 28 -28 28 -20 0 -26 6 -30 30 -6 35 -22 36
-31 3 -4 -18 -7 -15 -12 19 -4 23 -14 46 -24 51 -12 7 -15 18 -10 46 3 20 2
36 -4 36 -5 0 -9 -4 -9 -10 0 -5 -5 -10 -10 -10 -6 0 -8 11 -4 26 6 23 4 25
-15 19 -15 -5 -21 -2 -21 9 0 9 -6 16 -14 16 -17 0 -28 40 -16 55 13 16 0 27
-16 14 -17 -14 -54 -2 -54 17 0 8 -7 14 -16 14 -10 0 -14 5 -10 16 7 19 -38
71 -48 55 -10 -16 -53 -13 -60 4 -3 10 -19 15 -46 15 -30 0 -40 4 -40 16 0 10
6 14 15 11 8 -4 17 -2 19 2 9 14 -6 21 -25 10 -10 -5 -31 -6 -46 -3 l-27 7 25
9 c23 9 23 10 5 24 -39 28 -115 7 -84 -24 7 -7 8 -12 2 -12 -5 0 -16 6 -22 13
-9 8 -46 12 -109 12 -68 0 -98 -4 -100 -12 -3 -7 -14 -13 -26 -13 -17 0 -19 2
-8 9 8 5 11 16 8 25 -8 20 -60 21 -76 2z m293 -381 c3 -8 17 -15 32 -15 22 0
25 -2 14 -15 -10 -12 -8 -19 11 -40 24 -25 49 -33 49 -15 0 5 11 -2 25 -16 25
-25 35 -84 15 -84 -12 0 -12 -66 0 -95 9 -23 14 -15 29 50 7 30 9 -1 9 -120 0
-114 -3 -148 -9 -117 -10 54 -19 68 -30 51 -14 -22 -11 -89 4 -95 19 -7 9 -74
-10 -74 -9 0 -13 6 -10 14 6 16 -2 28 -14 20 -5 -3 -4 -14 1 -25 7 -13 8 -25
1 -37 -6 -9 -11 -11 -11 -4 0 22 -19 13 -62 -30 -24 -24 -37 -43 -30 -46 23
-7 12 -22 -16 -22 -16 0 -37 -7 -48 -15 -14 -11 -50 -14 -146 -15 l-128 0 0
380 0 380 159 0 c132 0 160 -3 165 -15z m1458 -4 c28 -14 34 -21 25 -30 -9 -9
-3 -19 26 -45 20 -18 37 -40 37 -49 0 -15 -20 -17 -203 -17 -145 0 -206 -3
-215 -12 -9 -9 -12 -6 -12 16 0 21 4 27 16 22 8 -3 22 0 30 7 55 47 76 71 66
75 -21 7 -13 22 12 22 13 0 29 7 36 15 19 23 136 20 182 -4z"/>
<path d="M6627 1843 c-11 -10 -8 -721 2 -727 5 -4 15 -4 23 -1 10 4 13 71 13
352 0 340 0 348 20 351 42 7 51 14 30 22 -25 11 -79 12 -88 3z"/>
<path d="M11578 2233 c-26 -7 -22 -33 5 -34 18 -1 17 -2 -7 -10 -17 -4 -34
-15 -38 -24 -6 -9 -23 -15 -49 -15 -26 0 -42 -5 -45 -15 -7 -18 -50 -20 -57
-2 -3 8 -14 1 -30 -18 -14 -16 -23 -33 -20 -38 2 -4 -9 -20 -26 -34 -17 -15
-31 -33 -31 -40 0 -7 -7 -13 -15 -13 -8 0 -15 -7 -15 -15 0 -8 -6 -15 -12 -15
-16 0 -58 -44 -58 -59 0 -6 -4 -11 -9 -11 -5 0 -12 -14 -16 -30 -6 -26 -9 -29
-22 -19 -12 10 -19 7 -38 -17 -25 -29 -33 -74 -15 -74 18 0 12 -92 -7 -113
-16 -16 -18 -40 -18 -167 0 -127 2 -151 18 -167 19 -21 25 -123 7 -123 -11 0
-14 -33 -3 -43 3 -4 15 0 25 10 17 15 18 15 18 -10 0 -15 -4 -27 -10 -27 -16
0 -12 -20 6 -27 9 -3 20 0 25 8 7 11 9 11 9 -3 0 -9 8 -21 17 -26 10 -6 16
-22 16 -41 0 -26 4 -30 19 -25 10 3 18 1 18 -5 0 -6 -5 -11 -12 -11 -6 0 1
-14 17 -30 17 -17 31 -26 33 -20 2 5 8 10 14 10 5 0 7 -9 3 -19 -3 -11 -1 -22
5 -26 5 -3 10 -1 10 5 0 15 42 2 53 -16 4 -8 16 -14 25 -14 15 -1 14 -3 -3
-16 -17 -13 -18 -16 -5 -24 19 -13 30 -12 30 0 0 16 70 12 76 -5 4 -11 21 -15
55 -15 52 0 68 -16 22 -22 -16 -2 -28 -7 -28 -13 0 -15 57 -19 65 -5 6 9 18
10 46 2 l39 -10 -38 -1 c-43 -1 -47 -21 -6 -32 31 -9 187 -9 217 -1 33 10 28
26 -10 32 -32 6 -32 6 12 12 26 4 50 2 57 -4 16 -13 47 -2 38 13 -4 6 -16 9
-26 6 -12 -3 -19 0 -19 9 0 10 13 14 45 14 33 0 45 4 45 15 0 9 9 15 23 15 13
0 28 5 35 12 9 9 12 3 12 -29 0 -38 3 -42 30 -48 26 -6 29 -9 19 -22 -20 -23
17 -42 55 -27 22 8 20 34 -1 35 -14 0 -12 3 6 12 19 9 25 9 29 -1 4 -14 38
-16 47 -2 3 6 -1 13 -9 16 -26 10 -18 24 14 24 20 0 30 5 30 15 0 10 10 15 30
15 16 0 33 6 37 14 4 8 19 16 33 18 l25 3 3 652 2 652 -32 10 c-25 7 -27 9
-11 10 30 1 38 18 14 30 -31 17 -266 14 -280 -3 -10 -11 -8 -17 6 -25 16 -9
14 -11 -14 -17 -18 -3 -33 -13 -33 -20 0 -9 -12 -14 -35 -14 -19 0 -35 5 -35
10 0 6 5 10 10 10 6 0 10 7 10 15 0 18 -27 20 -32 3 -3 -7 -14 -9 -34 -4 l-29
8 25 10 c24 9 24 10 6 24 -30 21 -93 18 -101 -5 -5 -17 -10 -18 -42 -9 -40 11
-123 2 -123 -13 0 -5 -6 -9 -13 -9 -8 0 -13 10 -13 23 1 17 -5 22 -24 24 -14
0 -33 -1 -42 -4z m376 -388 c3 -8 18 -15 33 -15 21 0 24 -3 15 -12 -15 -15
-17 -618 -2 -618 6 0 1 -9 -11 -21 -16 -16 -28 -20 -55 -14 -32 6 -49 -8 -21
-18 34 -12 -15 -19 -138 -19 -136 0 -163 4 -135 23 13 8 13 11 -2 20 -10 5
-18 14 -18 19 0 12 -79 90 -90 90 -5 0 -10 -6 -13 -12 -2 -7 -7 2 -11 20 -4
17 -14 32 -22 32 -11 0 -14 26 -14 145 0 119 3 145 14 145 8 0 17 14 21 30 6
26 9 29 22 19 12 -10 16 -10 24 2 13 20 11 29 -6 29 -17 0 -19 9 -5 30 6 10
10 11 10 3 0 -22 27 -14 44 12 9 13 26 33 37 44 18 17 20 23 9 36 -10 12 -10
15 3 15 8 0 20 7 27 15 10 12 39 15 145 15 109 0 134 -3 139 -15z"/>
<path d="M10529 2133 c-12 -13 -14 -126 -14 -638 0 -512 2 -625 14 -638 12
-15 39 -17 207 -17 l194 0 0 655 0 655 -194 0 c-168 0 -195 -2 -207 -17z"/>
<path d="M12419 2143 c-3 -21 3 -1208 6 -1212 2 -1 8 0 14 4 8 4 11 158 11
491 0 424 2 484 15 484 19 0 20 26 0 33 -11 5 -15 29 -17 103 -2 67 -7 99 -15
102 -7 2 -13 0 -14 -5z"/>
<path d="M10946 2114 c-11 -27 -7 -1228 4 -1244 9 -13 11 -13 20 0 11 16 15
1217 4 1244 -3 9 -10 16 -14 16 -4 0 -11 -7 -14 -16z"/>
<path d="M3909 1750 c0 -3 0 -117 0 -255 0 -235 1 -250 18 -250 12 0 16 5 13
15 -3 8 -5 114 -5 235 l0 220 287 5 c260 5 327 10 287 25 -18 6 -599 11 -600
5z"/>
<path d="M8030 1353 c0 -17 25 -18 407 -15 225 1 415 5 423 8 50 18 -54 24
-422 24 -382 0 -408 -1 -408 -17z"/>
<path d="M2725 1200 c-4 -6 -1 -17 5 -25 10 -13 8 -15 -14 -15 -15 0 -29 -7
-33 -16 -4 -10 -13 -14 -28 -10 -22 6 -23 4 -18 -34 5 -33 3 -40 -11 -40 -13
0 -16 -12 -16 -74 0 -56 4 -75 15 -80 8 -3 15 -17 15 -31 0 -18 7 -28 24 -35
13 -5 27 -14 31 -19 3 -6 22 -11 41 -11 19 0 34 -4 34 -10 0 -5 -9 -10 -19
-10 -11 0 -23 -5 -26 -10 -10 -16 25 -25 46 -12 10 7 26 12 34 12 9 0 18 7 21
15 4 10 20 15 50 15 30 0 46 5 50 15 4 8 12 15 20 15 8 0 14 7 14 16 0 10 6
13 18 10 16 -5 17 3 14 100 -3 81 -1 109 10 115 19 12 -35 61 -58 52 -13 -5
-15 -2 -9 16 6 20 4 21 -37 16 -40 -4 -41 -4 -15 7 15 7 27 15 27 20 0 13 -54
22 -58 10 -5 -15 -102 -16 -102 -2 0 13 -17 13 -25 0z"/>
</g>
</svg>
